<?xml version="1.0" encoding="UTF-8"?>
<svg id="Layer_2" data-name="Layer 2" xmlns="http://www.w3.org/2000/svg" viewBox="0 0 1098.59 238.84">
  <defs>
    <style>
      .cls-1 {
        fill: #9e521e;
      }

      .cls-2 {
        fill: #f90;
      }

      .cls-3 {
        fill: #281101;
      }
    </style>
  </defs>
  <g id="Layer_1-2" data-name="Layer 1">
    <g>
      <path class="cls-3" d="M135.85,85.72v97.71h-1.2l-32.39-49.17h-30.53l-32.39,49.17h-1.2v-97.71h47.44v28.34c-7.77.72-13.85,7.24-13.85,15.2h30.53c0-7.95-6.08-14.48-13.85-15.2v-28.34h47.44Z"/>
      <path class="cls-3" d="M307.27,130.78L139.96,2.68c-4.41-3.38-10.48-3.59-15.12-.51L10.79,77.78c-6.74,4.47-10.79,12.01-10.79,20.1v120.25h0c6.7,0,12.13-5.43,12.13-12.13v-101.61c0-8.09,4.05-15.63,10.79-20.1L124.34,17.06c4.63-3.07,10.7-2.86,15.12.51l155.68,119.19c5.96,4.56,9.46,11.64,9.46,19.15v50.09c0,6.7,5.43,12.13,12.13,12.13h0v-68.21c0-7.51-3.5-14.58-9.46-19.15Z"/>
      <path class="cls-1" d="M274.12,227.86h-28.02c-2.07,0-3.75-1.68-3.75-3.75v-18.12c0-2.07-1.68-3.75-3.75-3.75h-10.25c-2.58,0-4.39-2.54-3.54-4.98l5.18-14.85c.52-1.5,1.94-2.51,3.54-2.51h12.38c1.56,0,2.95.96,3.5,2.42l5.64,14.85c.93,2.45-.88,5.08-3.5,5.08h-1.66c-2.07,0-3.75,1.68-3.75,3.75h0c0,2.07,1.68,3.75,3.75,3.75h12.52c2.62,0,4.43-2.62,3.5-5.08l-11.33-29.83c-.55-1.45-1.95-2.42-3.5-2.42h-22.87c-1.59,0-3.01,1.01-3.54,2.51l-10.4,29.83c-.85,2.43.96,4.98,3.54,4.98h13.3c2.07,0,3.75,1.68,3.75,3.75v10.62c0,2.07-1.68,3.75-3.75,3.75h-56.59c-2.07,0-3.75,1.68-3.75,3.75h0c0,2.07,1.68,3.75,3.75,3.75h99.6c2.07,0,3.75-1.68,3.75-3.75h0c0-2.07-1.68-3.75-3.75-3.75Z"/>
      <path class="cls-2" d="M172.44,126.76c-.12-3.09-.45-5.34-.45-5.34,0,0-.33,2.26-.45,5.34-.82.18-1.47.82-1.64,1.64-3.09.12-5.34.45-5.34.45,0,0,2.26.33,5.34.45.18.82.82,1.47,1.64,1.64.12,3.09.45,5.34.45,5.34,0,0,.33-2.26.45-5.34.82-.18,1.47-.82,1.64-1.64,3.09-.12,5.34-.45,5.34-.45,0,0-2.26-.33-5.34-.45-.18-.82-.82-1.47-1.64-1.64Z"/>
      <path class="cls-2" d="M186.71,164.63s-.07.01-.1.02l2,6.3c-.78.28-1.64-.09-1.95-.86l-2.17-5.22c-.2,0-.41.01-.62.01h-23.75c-.21,0-.41,0-.62-.01l-2.17,5.22c-.24.59-.82.95-1.42.95-.18,0-.36-.03-.53-.09l2-6.3s-.07-.01-.1-.02l-3.66,8.82c-.06.14-.13.26-.21.37h37.18c-.09-.11-.16-.24-.21-.37l-3.66-8.82Z"/>
      <path class="cls-2" d="M131.12,92.08v81.75h20.46l3.14-9.86c-5.58-1.92-9.95-6.71-10.67-12.55l-1.25-10.24c-.39-3.19,2.1-6,5.32-6h2.2l1.93,13.05c.15,1.02.67,1.96,1.45,2.63.78.67,1.78,1.05,2.81,1.05h30.98c1.03,0,2.03-.37,2.81-1.05.78-.67,1.3-1.61,1.44-2.63l1.93-13.05h2.2c3.21,0,5.7,2.81,5.32,6l-1.25,10.24c-.72,5.84-5.09,10.63-10.67,12.55l3.14,9.86h20.46v-81.75h-81.75ZM193.64,122.64l-1.86,12.53-1.89,12.78c-.18,1.19-1.2,2.08-2.41,2.08h-30.98c-1.21,0-2.23-.88-2.41-2.08l-1.89-12.78-1.85-12.53c-1-6.76,2.23-12.71,7.31-12.71h28.66c5.08,0,8.31,5.95,7.31,12.71Z"/>
      <path class="cls-3" d="M465.87,112.99c0,1.98-.99,2.96-2.96,2.96h-6.32c-1.98,0-2.96-.99-2.96-2.96v-24.3c0-10.86-2.37-17.18-15.21-17.18s-15.21,6.32-15.21,17.18v88.49c0,10.86,2.37,17.18,15.21,17.18s15.21-6.32,15.21-17.18v-24.3c0-1.98.99-2.96,2.96-2.96h6.32c1.98,0,2.96.99,2.96,2.96v24.3c0,17.97-4.35,28.25-27.46,28.25s-27.46-10.27-27.46-28.25v-88.49c0-17.78,4.35-28.25,27.46-28.25s27.46,10.47,27.46,28.25v24.3Z"/>
      <path class="cls-3" d="M519.01,144.79v-27.65c0-9.48-3.16-12.25-10.47-12.25s-10.47,2.77-10.47,12.25v10.47c0,1.98-.99,2.96-2.96,2.96h-5.53c-1.98,0-2.96-.99-2.96-2.96v-10.47c0-14.22,3.56-22.52,21.93-22.52s21.73,8.3,21.93,22.52v84.34c0,1.98-.99,2.96-2.96,2.96h-5.53c-1.98,0-2.96-.99-2.96-2.96v-3.36c-4.74,4.74-11.26,7.31-16.99,7.31-8.3,0-15.41-5.14-15.41-16.79v-21.33c0-14.22,3.56-22.52,21.93-22.52h10.47ZM508.54,155.06c-7.31,0-10.47,2.77-10.47,12.25v15.6c0,9.48,2.17,12.25,9.48,12.25s11.46-3.75,11.46-13.23v-26.86h-10.47Z"/>
      <path class="cls-3" d="M573.12,205.43c-18.37,0-21.93-8.3-21.93-22.52v-14.42c0-1.98.99-2.96,2.96-2.96h5.53c1.98,0,2.96.99,2.96,2.96v14.42c0,9.48,3.16,12.25,10.47,12.25s10.47-2.77,10.47-12.25c0-14.22-1.78-14.81-9.09-22.52l-14.22-14.42c-5.53-5.73-9.09-11.46-9.09-28.84,0-14.22,3.56-22.52,21.93-22.52s21.93,8.3,21.93,22.52v14.42c0,1.98-.99,2.96-2.96,2.96h-5.53c-1.98,0-2.96-.99-2.96-2.96v-14.42c0-9.48-3.16-12.25-10.47-12.25s-10.47,2.77-10.47,12.25c0,14.22,1.78,14.81,9.09,22.52l14.22,14.42c5.53,5.73,9.09,11.46,9.09,28.84,0,14.22-3.56,22.52-21.93,22.52Z"/>
      <path class="cls-3" d="M648.18,144.79v-27.65c0-9.48-3.16-12.25-10.47-12.25s-10.47,2.77-10.47,12.25v10.47c0,1.98-.99,2.96-2.96,2.96h-5.53c-1.98,0-2.96-.99-2.96-2.96v-10.47c0-14.22,3.56-22.52,21.93-22.52s21.73,8.3,21.93,22.52v84.34c0,1.98-.99,2.96-2.96,2.96h-5.53c-1.98,0-2.96-.99-2.96-2.96v-3.36c-4.74,4.74-11.26,7.31-16.99,7.31-8.3,0-15.41-5.14-15.41-16.79v-21.33c0-14.22,3.56-22.52,21.93-22.52h10.47ZM637.71,155.06c-7.31,0-10.47,2.77-10.47,12.25v15.6c0,9.48,2.17,12.25,9.48,12.25s11.46-3.75,11.46-13.23v-26.86h-10.47Z"/>
      <path class="cls-3" d="M726.4,61.43c1.98,0,2.96.99,2.96,2.96v5.14c0,1.98-.99,2.96-2.96,2.96h-33.78v54.91h26.27c1.98,0,2.96.99,2.96,2.96v5.14c0,1.98-.99,2.96-2.96,2.96h-26.27v63.01c0,1.98-.99,2.96-2.96,2.96h-6.32c-1.98,0-2.96-.99-2.96-2.96V64.39c0-1.98.99-2.96,2.96-2.96h43.06Z"/>
      <path class="cls-3" d="M783.09,117.13v65.78c0,14.22-3.56,22.52-21.93,22.52s-21.93-8.3-21.93-22.52v-65.78c0-14.22,3.56-22.52,21.93-22.52s21.93,8.3,21.93,22.52ZM750.69,117.13v65.78c0,9.48,3.16,12.25,10.47,12.25s10.47-2.77,10.47-12.25v-65.78c0-9.48-3.16-12.25-10.47-12.25s-10.47,2.77-10.47,12.25Z"/>
      <path class="cls-3" d="M847.68,141.23c0,1.98-.99,2.96-2.96,2.96h-5.53c-1.98,0-2.96-.99-2.96-2.96v-24.1c0-9.48-2.17-12.25-9.48-12.25s-11.46,3.75-11.46,13.23v83.36c0,1.98-.99,2.96-2.96,2.96h-5.53c-1.98,0-2.96-.99-2.96-2.96v-102.91c0-1.98.99-2.96,2.96-2.96h5.53c1.98,0,2.96.99,2.96,2.96v3.36c4.74-4.74,11.26-7.31,16.99-7.31,8.3,0,15.41,5.14,15.41,16.79v29.83Z"/>
      <path class="cls-3" d="M906.34,102.52c5.14-4.94,11.06-7.9,18.96-7.9,8.3,0,15.41,5.14,15.41,16.79v90.07c0,1.98-.99,2.96-2.96,2.96h-5.53c-1.98,0-2.96-.99-2.96-2.96v-84.34c0-9.48-2.17-12.25-9.48-12.25-6.91,0-11.46,3.36-11.46,13.23v83.36c0,1.98-.99,2.96-2.96,2.96h-5.53c-1.98,0-2.96-.99-2.96-2.96v-84.34c0-9.48-2.17-12.25-9.48-12.25s-11.46,3.75-11.46,13.23v83.36c0,1.98-.99,2.96-2.96,2.96h-5.53c-1.98,0-2.96-.99-2.96-2.96v-102.91c0-1.98.99-2.96,2.96-2.96h5.53c1.98,0,2.96.99,2.96,2.96v3.36c4.74-4.74,11.26-7.31,16.99-7.31s10.86,2.57,13.43,7.9Z"/>
      <path class="cls-1" d="M413.72,238.84c-2.96,0-5.36-2.41-5.36-5.36s2.41-5.36,5.36-5.36h575.37c7.05,0,12.78-5.73,12.78-12.78v-25.73c0-7.05-5.73-12.78-12.78-12.78h-32.21c-1.76,0-3.35-.82-4.37-2.26-1.02-1.43-1.27-3.21-.69-4.87l25.18-72.25c.75-2.15,2.79-3.6,5.06-3.6h55.39c2.21,0,4.23,1.39,5.01,3.46l27.44,72.25c.64,1.67.42,3.48-.6,4.95-1.02,1.47-2.62,2.32-4.41,2.32h-30.32c-2.96,0-5.36-2.41-5.36-5.36s2.41-5.36,5.36-5.36h4.03c4.2,0,8.14-2.07,10.52-5.52s2.92-7.87,1.43-11.79l-13.66-35.96c-1.87-4.93-6.67-8.24-11.95-8.24h-29.98c-5.43,0-10.28,3.45-12.07,8.58l-12.53,35.96c-1.36,3.9-.74,8.24,1.65,11.61,2.39,3.37,6.29,5.38,10.42,5.38h24.82c2.96,0,5.36,2.41,5.36,5.36v43.87c0,7.05,5.73,12.78,12.78,12.78h67.86c2.96,0,5.36,2.41,5.36,5.36s-2.41,5.36-5.36,5.36H413.72Z"/>
    </g>
  </g>
</svg>