<?xml version="1.0" encoding="UTF-8"?>
<svg id="Layer_2" data-name="Layer 2" xmlns="http://www.w3.org/2000/svg" viewBox="0 0 1098.59 238.84">
  <defs>
    <style>
      .cls-1 {
        fill: #f90;
      }
    </style>
  </defs>
  <g id="Layer_1-2" data-name="Layer 1">
    <g>
      <path class="cls-1" d="M307.27,130.78L139.96,2.68c-4.41-3.38-10.48-3.59-15.12-.51L10.79,77.78c-6.74,4.47-10.79,12.01-10.79,20.1v120.25c6.7,0,12.13-5.43,12.13-12.13v-101.61c0-8.09,4.05-15.63,10.79-20.1L124.34,17.06c4.63-3.07,10.7-2.86,15.12.51l155.68,119.19c5.96,4.56,9.46,11.64,9.46,19.15v50.09c0,6.7,5.43,12.13,12.13,12.13v-68.21c0-7.51-3.5-14.58-9.46-19.15Z"/>
      <path class="cls-1" d="M274.12,227.86h-28.02c-2.07,0-3.75-1.68-3.75-3.75v-18.12c0-2.07-1.68-3.75-3.75-3.75h-10.25c-2.58,0-4.39-2.54-3.54-4.98l5.18-14.85c.52-1.5,1.94-2.51,3.54-2.51h12.38c1.56,0,2.95.96,3.5,2.42l5.64,14.85c.93,2.45-.88,5.08-3.5,5.08h-1.66c-2.07,0-3.75,1.68-3.75,3.75s1.68,3.75,3.75,3.75h12.52c2.62,0,4.43-2.62,3.5-5.08l-11.33-29.83c-.55-1.45-1.95-2.42-3.5-2.42h-22.87c-1.59,0-3.01,1.01-3.54,2.51l-10.4,29.83c-.85,2.43.96,4.98,3.54,4.98h13.3c2.07,0,3.75,1.68,3.75,3.75v10.62c0,2.07-1.68,3.75-3.75,3.75h-56.59c-2.07,0-3.75,1.68-3.75,3.75s1.68,3.75,3.75,3.75h99.6c2.07,0,3.75-1.68,3.75-3.75s-1.68-3.75-3.75-3.75Z"/>
      <path class="cls-1" d="M171.54,130.95c.12,3.09.45,5.34.45,5.34,0,0,.33-2.26.45-5.34.82-.18,1.47-.82,1.64-1.64,3.09-.12,5.34-.45,5.34-.45,0,0-2.26-.33-5.34-.45-.18-.82-.82-1.47-1.64-1.64-.12-3.09-.45-5.34-.45-5.34,0,0-.33,2.26-.45,5.34-.82.18-1.47.82-1.64,1.64-3.09.12-5.34.45-5.34.45,0,0,2.26.33,5.34.45.18.82.82,1.47,1.64,1.64Z"/>
      <path class="cls-1" d="M190.37,173.46l-3.66-8.82s-.07.01-.1.02l2,6.3c-.78.28-1.64-.09-1.95-.86l-2.17-5.22c-.2,0-.41.01-.62.01h-23.75c-.21,0-.41,0-.62-.01l-2.17,5.22c-.24.59-.82.95-1.42.95-.18,0-.36-.03-.53-.09l2-6.3s-.07-.01-.1-.02l-3.66,8.82c-.06.14-.13.26-.21.38h37.18c-.09-.11-.16-.24-.21-.38Z"/>
      <path class="cls-1" d="M154.71,163.97c-5.58-1.92-9.95-6.71-10.67-12.55l-1.25-10.24c-.39-3.19,2.1-6,5.32-6h2.2l1.93,13.05c.15,1.02.67,1.96,1.45,2.63.78.67,1.78,1.05,2.81,1.05h30.98c1.03,0,2.03-.37,2.81-1.05.78-.67,1.3-1.61,1.44-2.63l1.93-13.05h2.2c3.21,0,5.7,2.81,5.32,6l-1.25,10.24c-.72,5.84-5.09,10.63-10.67,12.55l3.14,9.86h20.46v-81.75h-77.02v-6.36h-47.44v28.34c7.77.72,13.85,7.24,13.85,15.2h-30.53c0-7.95,6.08-14.48,13.85-15.2v-28.34h-47.44v97.71h1.2l32.39-49.17h30.53l32.39,49.17h1.2v-9.6h15.72l3.14-9.86ZM157.66,109.93h28.66c5.08,0,8.31,5.95,7.31,12.71l-1.86,12.53-1.89,12.78c-.18,1.19-1.2,2.08-2.41,2.08h-30.98c-1.21,0-2.23-.88-2.41-2.08l-1.89-12.78-1.85-12.53c-1-6.76,2.23-12.71,7.31-12.71Z"/>
      <path class="cls-1" d="M438.42,205.43c23.11,0,27.46-10.27,27.46-28.25v-24.3c0-1.98-.99-2.96-2.96-2.96h-6.32c-1.98,0-2.96.99-2.96,2.96v24.3c0,10.86-2.37,17.18-15.21,17.18s-15.21-6.32-15.21-17.18v-88.49c0-10.86,2.37-17.18,15.21-17.18s15.21,6.32,15.21,17.18v24.3c0,1.98.99,2.96,2.96,2.96h6.32c1.98,0,2.96-.99,2.96-2.96v-24.3c0-17.78-4.35-28.25-27.46-28.25s-27.46,10.47-27.46,28.25v88.49c0,17.97,4.35,28.25,27.46,28.25Z"/>
      <path class="cls-1" d="M502.02,205.43c5.73,0,12.25-2.57,16.99-7.31v3.36c0,1.98.99,2.96,2.96,2.96h5.53c1.98,0,2.96-.99,2.96-2.96v-84.34c-.2-14.22-3.56-22.52-21.93-22.52s-21.93,8.3-21.93,22.52v10.47c0,1.98.99,2.96,2.96,2.96h5.53c1.98,0,2.96-.99,2.96-2.96v-10.47c0-9.48,3.16-12.25,10.47-12.25s10.47,2.77,10.47,12.25v27.65h-10.47c-18.37,0-21.93,8.3-21.93,22.52v21.33c0,11.65,7.11,16.79,15.41,16.79ZM498.07,167.3c0-9.48,3.16-12.25,10.47-12.25h10.47v26.86c0,9.48-4.15,13.23-11.46,13.23s-9.48-2.77-9.48-12.25v-15.6Z"/>
      <path class="cls-1" d="M573.12,205.43c18.37,0,21.93-8.3,21.93-22.52,0-17.38-3.56-23.11-9.09-28.84l-14.22-14.42c-7.31-7.7-9.09-8.3-9.09-22.52,0-9.48,3.16-12.25,10.47-12.25s10.47,2.77,10.47,12.25v14.42c0,1.98.99,2.96,2.96,2.96h5.53c1.98,0,2.96-.99,2.96-2.96v-14.42c0-14.22-3.56-22.52-21.93-22.52s-21.93,8.3-21.93,22.52c0,17.38,3.56,23.11,9.09,28.84l14.22,14.42c7.31,7.7,9.09,8.3,9.09,22.52,0,9.48-3.16,12.25-10.47,12.25s-10.47-2.77-10.47-12.25v-14.42c0-1.98-.99-2.96-2.96-2.96h-5.53c-1.98,0-2.96.99-2.96,2.96v14.42c0,14.22,3.56,22.52,21.93,22.52Z"/>
      <path class="cls-1" d="M631.19,205.43c5.73,0,12.25-2.57,16.99-7.31v3.36c0,1.98.99,2.96,2.96,2.96h5.53c1.98,0,2.96-.99,2.96-2.96v-84.34c-.2-14.22-3.56-22.52-21.93-22.52s-21.93,8.3-21.93,22.52v10.47c0,1.98.99,2.96,2.96,2.96h5.53c1.98,0,2.96-.99,2.96-2.96v-10.47c0-9.48,3.16-12.25,10.47-12.25s10.47,2.77,10.47,12.25v27.65h-10.47c-18.37,0-21.93,8.3-21.93,22.52v21.33c0,11.65,7.11,16.79,15.41,16.79ZM627.24,167.3c0-9.48,3.16-12.25,10.47-12.25h10.47v26.86c0,9.48-4.15,13.23-11.46,13.23s-9.48-2.77-9.48-12.25v-15.6Z"/>
      <path class="cls-1" d="M683.34,204.44h6.32c1.98,0,2.96-.99,2.96-2.96v-63.01h26.27c1.98,0,2.96-.99,2.96-2.96v-5.14c0-1.98-.99-2.96-2.96-2.96h-26.27v-54.91h33.78c1.98,0,2.96-.99,2.96-2.96v-5.14c0-1.98-.99-2.96-2.96-2.96h-43.06c-1.98,0-2.96.99-2.96,2.96v137.08c0,1.98.99,2.96,2.96,2.96Z"/>
      <path class="cls-1" d="M761.16,205.43c18.37,0,21.93-8.3,21.93-22.52v-65.78c0-14.22-3.56-22.52-21.93-22.52s-21.93,8.3-21.93,22.52v65.78c0,14.22,3.56,22.52,21.93,22.52ZM750.69,117.13c0-9.48,3.16-12.25,10.47-12.25s10.47,2.77,10.47,12.25v65.78c0,9.48-3.16,12.25-10.47,12.25s-10.47-2.77-10.47-12.25v-65.78Z"/>
      <path class="cls-1" d="M806.79,204.44h5.53c1.98,0,2.96-.99,2.96-2.96v-83.36c0-9.48,4.15-13.23,11.46-13.23s9.48,2.77,9.48,12.25v24.1c0,1.98.99,2.96,2.96,2.96h5.53c1.98,0,2.96-.99,2.96-2.96v-29.83c0-11.65-7.11-16.79-15.41-16.79-5.73,0-12.25,2.57-16.99,7.31v-3.36c0-1.98-.99-2.96-2.96-2.96h-5.53c-1.98,0-2.96.99-2.96,2.96v102.91c0,1.98.99,2.96,2.96,2.96Z"/>
      <path class="cls-1" d="M867.43,204.44h5.53c1.98,0,2.96-.99,2.96-2.96v-83.36c0-9.48,4.15-13.23,11.46-13.23s9.48,2.77,9.48,12.25v84.34c0,1.98.99,2.96,2.96,2.96h5.53c1.98,0,2.96-.99,2.96-2.96v-83.36c0-9.88,4.54-13.23,11.46-13.23,7.31,0,9.48,2.77,9.48,12.25v84.34c0,1.98.99,2.96,2.96,2.96h5.53c1.98,0,2.96-.99,2.96-2.96v-90.07c0-11.65-7.11-16.79-15.41-16.79s-13.83,2.96-18.96,7.9c-2.57-5.33-7.7-7.9-13.43-7.9s-12.25,2.57-16.99,7.31v-3.36c0-1.98-.99-2.96-2.96-2.96h-5.53c-1.98,0-2.96.99-2.96,2.96v102.91c0,1.98.99,2.96,2.96,2.96Z"/>
      <path class="cls-1" d="M1093.23,228.11h-67.86c-7.05,0-12.78-5.73-12.78-12.78v-43.87c0-2.96-2.41-5.36-5.36-5.36h-24.82c-4.13,0-8.03-2.01-10.42-5.38-2.39-3.37-3.01-7.71-1.65-11.61l12.53-35.96c1.79-5.13,6.64-8.58,12.07-8.58h29.98c5.27,0,10.08,3.31,11.95,8.24l13.66,35.96c1.49,3.93.96,8.34-1.43,11.79s-6.32,5.52-10.52,5.52h-4.03c-2.96,0-5.36,2.41-5.36,5.36s2.41,5.36,5.36,5.36h30.32c1.79,0,3.4-.84,4.41-2.32,1.02-1.47,1.24-3.28.6-4.95l-27.44-72.25c-.79-2.07-2.8-3.46-5.01-3.46h-55.39c-2.28,0-4.31,1.45-5.06,3.6l-25.18,72.25c-.58,1.66-.33,3.44.69,4.87,1.02,1.43,2.61,2.26,4.37,2.26h32.21c7.05,0,12.78,5.73,12.78,12.78v25.73c0,7.05-5.73,12.78-12.78,12.78H413.72c-2.96,0-5.36,2.41-5.36,5.36s2.41,5.36,5.36,5.36h679.51c2.96,0,5.36-2.41,5.36-5.36s-2.41-5.36-5.36-5.36Z"/>
    </g>
  </g>
</svg>