<?xml version="1.0" encoding="UTF-8"?>
<svg id="Layer_2" data-name="Layer 2" xmlns="http://www.w3.org/2000/svg" viewBox="0 0 462.91 512">
  <defs>
    <style>
      .cls-1 {
        fill: #fff;
      }
    </style>
  </defs>
  <g id="Layer_1-2" data-name="Layer 1">
    <path class="cls-1" d="M462.91,56.91v398.18c0,31.38-25.53,56.91-56.91,56.91h-114.54c-8.84,0-16-7.16-16-16s7.16-16,16-16h114.54c13.74,0,24.91-11.17,24.91-24.91V56.91c0-13.74-11.17-24.91-24.91-24.91h-114.54c-8.84,0-16-7.16-16-16s7.16-16,16-16h114.54c31.38,0,56.91,25.53,56.91,56.91ZM351.09,256c0-4.49-1.89-8.77-5.2-11.8l-104.83-95.96c-6.52-5.97-16.64-5.52-22.6,1s-5.52,16.64,1,22.6l74.46,68.15H16c-8.84,0-16,7.16-16,16s7.16,16,16,16h277.91l-74.46,68.15c-6.52,5.97-6.97,16.09-1,22.61,3.16,3.45,7.47,5.2,11.81,5.2,3.86,0,7.73-1.39,10.8-4.2l104.83-95.96c3.31-3.03,5.2-7.31,5.2-11.8Z"/>
  </g>
</svg>