<svg id="Layer_1" height="512" viewBox="0 0 512 512" width="512" xmlns="http://www.w3.org/2000/svg"><path d="m487.455 56.909v398.181c0 31.38-25.53 56.91-56.91 56.91h-114.545c-8.836 0-16-7.164-16-16s7.164-16 16-16h114.545c13.736 0 24.91-11.174 24.91-24.91v-398.181c0-13.735-11.174-24.909-24.91-24.909h-114.545c-8.836 0-16-7.164-16-16s7.164-16 16-16h114.545c31.38 0 56.91 25.529 56.91 56.909zm-111.819 199.091c0-4.489-1.886-8.771-5.197-11.802l-104.832-95.956c-6.518-5.966-16.639-5.519-22.605 1s-5.519 16.639 1 22.605l74.457 68.153h-277.914c-8.836 0-16 7.164-16 16s7.164 16 16 16h277.914l-74.458 68.154c-6.519 5.966-6.966 16.087-1 22.605 3.156 3.448 7.474 5.197 11.807 5.197 3.858 0 7.729-1.388 10.798-4.198l104.832-95.957c3.312-3.03 5.198-7.313 5.198-11.801z"/></svg>