<?xml version="1.0" encoding="UTF-8"?>
<svg id="Layer_2" data-name="Layer 2" xmlns="http://www.w3.org/2000/svg" viewBox="0 0 456 456">
  <defs>
    <style>
      .cls-1 {
        fill: #f90;
      }
    </style>
  </defs>
  <g id="Layer_1-2" data-name="Layer 1">
    <g id="Layer_61" data-name="Layer 61">
      <path class="cls-1" d="M228,0C102.08,0,0,102.08,0,228s102.08,228,228,228,228-102.08,228-228S353.92,0,228,0ZM334.72,230.32l-114.24,160c-.77,1.04-1.98,1.66-3.28,1.68h-31.2c-11.09-.09-20.01-9.15-19.92-20.24.03-3.81,1.14-7.53,3.2-10.72l86.72-133.04-86.72-133.04c-6.01-9.32-3.32-21.75,6-27.76,3.2-2.06,6.92-3.17,10.72-3.2h31.2c1.3.02,2.51.64,3.28,1.68l114.24,160c1.04,1.37,1.04,3.27,0,4.64Z"/>
    </g>
  </g>
</svg>