<?xml version="1.0" encoding="UTF-8"?>
<svg id="Layer_2" data-name="Layer 2" xmlns="http://www.w3.org/2000/svg" viewBox="0 0 318 277.99">
  <g id="Layer_3" data-name="Layer 3">
    <g id="i8xzup.tif">
      <path d="M6.79,271.2c-8.28-8.28-8.13-19.53-4.11-29.84,9.46-24.25,28.15-49.06,38.17-73.6,3.02-6.49,7.46-9.19,14.27-10.68,27-5.91,58.21-6.15,86.83-9.83,9.88-1.27,9.88-15.54,0-16.81-28.62-3.68-59.83-3.92-86.83-9.83-7.93-1.73-10.22-3.95-14.27-10.68C29.16,90.48,13.08,59.8,3.9,39.1-4.44,20.33,2.08,3.34,19.16.39c5.55-.96,11.26-.09,16.42,2.16,90.69,39.54,182.04,78.15,271.63,119.92,6.51,3.03,10.89,9.53,10.79,16.7,0,.37-.02.73-.05,1.1-.47,6.59-4.72,12.32-10.72,15.1-90.46,41.96-274.44,121.27-274.71,121.35-8.81,2.7-19.04,1.17-25.73-5.53Z"/>
    </g>
  </g>
</svg>